<?xml version="1.0" standalone="no"?>
<!DOCTYPE svg PUBLIC "-//W3C//DTD SVG 20010904//EN"
 "http://www.w3.org/TR/2001/REC-SVG-20010904/DTD/svg10.dtd">
<svg version="1.0" xmlns="http://www.w3.org/2000/svg"
 width="300.000000pt" height="300.000000pt" viewBox="0 0 300.000000 300.000000"
 preserveAspectRatio="xMidYMid meet">

<g transform="translate(0.000000,300.000000) scale(0.100000,-0.100000)"
fill="#000000" stroke="none">
<path d="M1415 2441 c-296 -48 -524 -211 -654 -466 -67 -130 -86 -216 -86
-390 0 -173 17 -250 84 -383 235 -468 832 -620 1267 -321 l41 28 224 -225
c123 -124 236 -232 251 -240 67 -35 135 -1 145 74 l6 43 -243 244 -243 243 35
54 c52 78 82 142 113 238 36 115 45 288 21 410 -67 331 -310 588 -634 670 -87
23 -252 33 -327 21z m317 -194 c216 -69 378 -226 451 -436 39 -111 48 -260 23
-374 -77 -345 -403 -577 -756 -537 -262 30 -478 200 -572 452 -27 71 -32 100
-35 203 -6 146 10 223 69 345 34 68 60 103 128 171 72 73 101 94 180 132 52
25 127 53 165 61 100 22 248 15 347 -17z"/>
<path d="M1380 2175 c-211 -58 -371 -215 -434 -425 -78 -261 50 -568 289 -691
120 -62 167 -74 295 -74 128 0 176 12 294 73 128 67 241 206 287 353 95 307
-77 640 -388 750 -78 28 -264 35 -343 14z m530 -325 c11 -11 20 -28 20 -37 0
-19 -475 -500 -502 -509 -10 -3 -25 -1 -35 4 -28 16 -223 245 -229 270 -8 30
21 62 57 62 22 0 43 -18 110 -95 45 -52 84 -95 88 -95 3 0 100 95 216 210 221
219 235 230 275 190z"/>
</g>
</svg>
